<svg width="38" height="38" viewBox="0 0 38 38" fill="none" xmlns="http://www.w3.org/2000/svg">
<path d="M27.2109 11.3942L27.3334 11.3625L26.7485 8.50244C26.7122 8.31871 26.5701 8.19186 26.4029 8.19186H25.5924V8.33444H26.4029C26.5088 8.33444 26.6008 8.41675 26.6258 8.5373L27.2109 11.3942Z" fill="#A8D3F1"/>
<path d="M27.105 11.4037L27.222 11.3531L25.9907 7.63775C25.935 7.46975 25.793 7.35889 25.637 7.35889H24.7204V7.50146H25.637C25.7429 7.50146 25.8374 7.57748 25.8737 7.68834L27.105 11.4037Z" fill="white"/>
<path d="M25.2917 7.50146C25.4588 7.50146 25.5925 7.84351 25.5925 8.26471C25.5925 8.68616 25.4588 9.02821 25.2917 9.02821V7.50146Z" fill="#A8D3F1"/>
<path d="M23.7706 7.47293C23.7706 8.13814 23.9823 8.6765 24.2442 8.6765C24.5062 8.6765 24.7177 8.13814 24.7177 7.47293C24.7177 6.80771 24.5062 6.26935 24.2442 6.26935C23.9823 6.26935 23.7706 6.80771 23.7706 7.47293Z" fill="white"/>
<path d="M32.5121 27.9405C34.9552 27.9405 36.9358 30.1925 36.9358 32.9702C36.9358 35.748 34.9552 38 32.5121 38C30.069 38 28.0885 35.748 28.0885 32.9702C28.0885 30.1925 30.0662 27.9405 32.5121 27.9405ZM32.5121 36.0646C34.0136 36.0646 35.2309 34.6805 35.2309 32.9734C35.2309 31.2661 34.0136 29.8821 32.5121 29.8821C31.0106 29.8821 29.7932 31.2661 29.7932 32.9734C29.7932 34.6805 31.0106 36.0646 32.5121 36.0646Z" fill="#00081A"/>
<path d="M32.5122 33.8984C32.0628 33.8984 31.6986 33.4842 31.6986 32.9734C31.6986 32.4626 32.0628 32.0485 32.5122 32.0485C32.9614 32.0485 33.3256 32.4626 33.3256 32.9734C33.3256 33.4842 32.9614 33.8984 32.5122 33.8984Z" fill="white"/>
<path d="M7.77771 32.9734C7.77771 33.4832 8.14274 33.8984 8.59123 33.8984C9.03973 33.8984 9.40454 33.4832 9.40454 32.9734C9.40454 32.4634 9.03973 32.0485 8.59123 32.0485C8.14274 32.0485 7.77771 32.4634 7.77771 32.9734Z" fill="white"/>
<path d="M8.59131 27.9405C11.0342 27.9405 13.015 30.1925 13.015 32.9702C13.015 35.748 11.0342 38 8.59131 38C6.14817 38 4.16762 35.748 4.16762 32.9702C4.16762 30.1925 6.14817 27.9405 8.59131 27.9405ZM8.59131 36.0646C10.0928 36.0646 11.31 34.6805 11.31 32.9734C11.31 31.2661 10.0928 29.8821 8.59131 29.8821C7.08978 29.8821 5.87238 31.2661 5.87238 32.9734C5.87238 34.6805 7.08978 36.0646 8.59131 36.0646Z" fill="#00081A"/>
<path d="M29.3641 13.0316C29.3641 13.7665 28.8405 14.3652 28.1913 14.3652V11.6983C28.8377 11.6983 29.3641 12.2938 29.3641 13.0316Z" fill="white"/>
<path d="M24.5504 13.1299C24.5504 13.1299 24.5645 12.6927 25.0602 12.6644C25.5588 12.6358 26.0575 12.2809 26.1356 11.9103C26.155 11.8186 26.1634 11.7331 26.1689 11.654C26.18 11.4162 26.3585 11.2357 26.5672 11.2357H27.7763C27.9964 11.2357 28.1746 11.4385 28.1746 11.6888V14.3557C28.1746 14.6058 27.9964 14.8086 27.7763 14.8086H26.8514C26.8514 14.8086 26.3055 15.233 26.96 16.2591C27.6147 17.2855 30.523 21.6374 31.303 23.1608C32.0802 24.6812 32.175 26.3472 32.175 26.3472L31.5538 29.2835L27.5701 31.833L26.3557 33.1254C26.1969 33.2963 25.9851 33.3914 25.765 33.3914H12.5328V31.092H2.13656C2.13656 31.092 2.79127 26.4898 7.14813 23.5537H16.8925C16.8925 23.5537 15.2323 25.606 15.5805 28.4726C15.9287 31.3389 18.4805 32.2227 19.539 32.2227C20.5976 32.2227 23.1799 32.2227 24.5199 32.2227C25.857 32.2227 27.5088 29.2138 27.6649 26.1003C27.8209 22.9867 26.8766 20.285 25.7345 18.4859C25.013 17.3455 24.4586 16.2276 24.3973 15.3407C24.3303 14.4569 24.5504 13.1299 24.5504 13.1299Z" fill="url(#paint0_linear_70_247)"/>
<path d="M1.49331 29.9613H4.08395C4.35975 29.9613 4.58261 30.2145 4.58261 30.5283C4.58261 30.8417 4.35975 31.0952 4.08395 31.0952H1.49331C1.21751 31.0952 0.994655 30.8417 0.994655 30.5283C0.994655 30.2145 1.21751 29.9613 1.49331 29.9613Z" fill="#00081A"/>
<path d="M32.5122 26.1383C35.543 26.1383 38 28.9318 38 32.3779H27.0216C27.0216 28.9318 29.4784 26.1383 32.5122 26.1383Z" fill="url(#paint1_linear_70_247)"/>
<path d="M2.69665 32.5077H13.8089C13.8089 32.5077 15.2686 30.2842 14.3076 27.7662C13.0317 24.4215 9.25714 25.0042 7.10923 26.4201C4.96154 27.8359 3.38188 30.4205 2.69665 32.5077Z" fill="url(#paint2_linear_70_247)"/>
<path d="M17.0736 23.8483L17.3439 24.2821C17.3968 24.3677 17.486 24.4215 17.578 24.4215C17.7366 24.4215 17.8649 24.2758 17.8649 24.0952V21.6691C17.8649 21.5963 17.812 21.5391 17.7507 21.5391H11.6806C10.6555 21.5391 9.74165 21.1559 9.30148 20.7442C9.1623 20.6142 8.95332 20.6587 8.86152 20.8359C8.6107 21.3397 8.32103 22.3215 9.05087 23.4997C9.07307 23.5345 9.10936 23.5568 9.14565 23.5568H16.5752C16.7728 23.5537 16.9594 23.6645 17.0736 23.8483Z" fill="#00081A"/>
<path d="M5.3431 30.6674H12.4104C12.5135 30.6674 12.5969 30.7626 12.5969 30.8797C12.5969 30.9969 12.5135 31.092 12.4104 31.092H5.3431C5.23999 31.092 5.15631 30.9969 5.15631 30.8797C5.15631 30.7626 5.23999 30.6674 5.3431 30.6674Z" fill="#E58E0E"/>
<path d="M7.29291 29.483H12.4104C12.5135 29.483 12.5969 29.5779 12.5969 29.6953C12.5969 29.8124 12.5135 29.9073 12.4104 29.9073H7.29589C7.19279 29.9073 7.10911 29.8124 7.10911 29.6953C7.10633 29.5779 7.19001 29.483 7.29291 29.483Z" fill="#E58E0E"/>
<path d="M9.06191 28.2983H12.4104C12.5135 28.2983 12.5969 28.3934 12.5969 28.5106C12.5969 28.6278 12.5135 28.7229 12.4104 28.7229H9.06468C8.96158 28.7229 8.87811 28.6278 8.87811 28.5106C8.87534 28.3934 8.9588 28.2983 9.06191 28.2983Z" fill="#E58E0E"/>
<path d="M0.997369 18.1027H8.25974V23.2813H0.997369V18.1027Z" fill="url(#paint3_linear_70_247)"/>
<path d="M2.13673 14.8212H7.11755V18.1027H2.13673V14.8212Z" fill="url(#paint4_linear_70_247)"/>
<path d="M5.99762 23.4839C6.0004 23.4839 6.00317 23.4839 6.00595 23.4839C6.03946 23.4777 6.06444 23.4428 6.05889 23.4048L4.93904 14.8149C4.93349 14.7769 4.90296 14.7483 4.86945 14.7546C4.83615 14.7609 4.81096 14.7958 4.81651 14.8338L5.93636 23.4237C5.93913 23.4585 5.9671 23.4839 5.99762 23.4839Z" fill="black"/>
<path d="M3.10053 23.4839C3.13127 23.4839 3.15624 23.4585 3.162 23.4237L4.28185 14.8338C4.2874 14.7958 4.26221 14.7578 4.22891 14.7546C4.1954 14.7483 4.16189 14.7769 4.15911 14.8149L3.03926 23.4048C3.03371 23.4428 3.0589 23.4808 3.0922 23.4839C3.0922 23.4839 3.09775 23.4839 3.10053 23.4839Z" fill="black"/>
<path fill-rule="evenodd" clip-rule="evenodd" d="M27.8183 21.0482C27.8183 21.0482 28.6568 22.4324 28.9437 24.1681L29.7376 24.222C29.7376 24.222 29.2306 22.5653 28.5371 21.4252L27.8183 21.0482Z" fill="white"/>
<path d="M0.125312 23.5537H9.15946C9.22905 23.5537 9.28476 23.4903 9.28476 23.4111C9.28476 23.3319 9.22905 23.2685 9.15946 23.2685H0.125312C0.0557217 23.2685 5.538e-06 23.3319 5.538e-06 23.4111C0.00278061 23.4903 0.0584967 23.5537 0.125312 23.5537Z" fill="black"/>
<path d="M24.3889 15.4356C24.3947 15.5181 24.4335 15.6353 24.4446 15.7208C24.6259 15.7493 24.7204 15.7588 24.7958 15.7651C25.1467 15.7936 25.871 14.7295 25.871 14.4126C25.871 14.1657 25.1021 13.3642 24.5785 12.9967C24.5367 13.1204 24.3221 14.4538 24.3889 15.4356Z" fill="#FB8F08"/>
<path d="M23.2552 14.9352C23.2971 14.8624 23.3556 14.8024 23.4224 14.7578C23.4809 14.723 24.0743 14.3398 24.0743 14.3398V14.3429C24.1439 14.3049 24.219 14.2829 24.2999 14.2829C24.5924 14.2829 24.8291 14.552 24.8291 14.8847C24.8291 14.9924 24.8042 15.0936 24.7595 15.1793C24.7205 15.2553 24.6703 15.3216 24.6035 15.3724L24.6007 15.3756C24.5757 15.3945 24.5533 15.4073 24.5284 15.423L24.3277 15.5499L23.9879 15.7682C23.9879 15.7682 23.9851 15.7714 23.9823 15.7714L23.921 15.8128C23.8487 15.8508 23.7733 15.8728 23.6926 15.8728C23.4224 15.8728 23.2023 15.6448 23.1662 15.3533C23.1632 15.325 23.1605 15.2996 23.1605 15.271C23.1632 15.1475 23.1967 15.0304 23.2552 14.9352Z" fill="#00081A"/>
<path d="M21.475 29.8345H22.6201C22.6201 29.8345 23.0351 30.4711 23.595 30.5534C23.9098 30.6011 24.4947 30.5948 24.946 30.5788C25.2859 30.5694 25.5672 30.8797 25.5672 31.2661C25.5672 31.6464 25.2972 31.9536 24.9629 31.9536H21.4778C21.3275 31.9536 21.2076 31.8173 21.2076 31.6464L21.475 29.8345Z" fill="#00081A"/>
<path d="M21.3805 30.0656H22.5253C22.5253 30.0656 22.9403 30.7023 23.5002 30.7848C23.8151 30.8323 24.4002 30.826 24.8515 30.81C25.1913 30.8006 25.4727 31.1109 25.4727 31.4975C25.4727 31.8775 25.2024 32.1847 24.8681 32.1847H21.3833C21.2328 32.1847 21.113 32.0484 21.113 31.8775L21.3805 30.0656Z" fill="#00081A"/>
<path d="M22.4194 29.9613C22.3748 30.2337 22.166 30.4394 21.9152 30.4394C21.6646 30.4394 21.4556 30.2337 21.411 29.9613H22.4194Z" fill="#FCB3BB"/>
<path d="M12.6973 18.4859C12.6973 18.4859 19.9206 18.4859 21.6311 18.4859C23.921 18.4859 23.921 21.1971 23.921 22.3407C23.921 23.484 23.1074 29.9042 23.1074 29.9042H21.3747L20.84 22.3407C20.84 22.3407 15.6194 22.3407 14.2517 22.3407C12.8839 22.3407 12.0343 20.5922 12.6973 18.4859Z" fill="#37255C"/>
<path d="M12.533 18.8817C12.533 18.8817 19.6923 18.8817 21.3526 18.8817C23.5729 18.8817 23.5729 21.514 23.5729 22.6224C23.5729 23.7311 22.7846 29.9613 22.7846 29.9613H21.1048L20.5865 22.6224C20.5865 22.6224 15.5222 22.6224 14.1961 22.6224C12.8701 22.6224 11.8896 20.9216 12.533 18.8817Z" fill="url(#paint5_linear_70_247)"/>
<path d="M15.355 5.32235C15.355 5.32235 14.7477 4.58113 14.3968 3.39982C14.3968 3.39982 16.1433 0.631498 19.0766 2.12968L15.355 5.32235Z" fill="#442F6E"/>
<path d="M19.0822 2.12968C19.0822 2.12968 19.2884 3.87477 18.7257 5.23037C18.163 6.58621 18.0236 6.61768 17.0096 6.38964L16.8369 7.88153L14.9121 7.10545C14.9121 7.10545 15.6475 4.77116 15.3578 4.34995C15.1125 3.99532 15.0263 3.37755 15.3828 3.16211C15.9483 2.82321 16.3607 3.57072 16.3856 3.88445L16.6642 2.70919C16.6614 2.71234 18.6505 1.94595 19.0822 2.12968Z" fill="url(#paint6_linear_70_247)"/>
<path d="M18.4972 2.30711C18.5055 2.30711 18.5111 2.30711 18.5194 2.30372L21.709 1.58162C21.7675 1.56903 21.8038 1.50561 21.7927 1.43904C21.7816 1.37271 21.7259 1.33156 21.6674 1.34415L18.4778 2.06625C18.4193 2.07883 18.383 2.14226 18.3941 2.20883C18.4052 2.26571 18.447 2.30711 18.4972 2.30711Z" fill="#CC0A31"/>
<path d="M19.071 2.18971L14.3743 3.39014C14.3743 3.39014 13.884 0.824671 15.9454 0.162606C18.0069 -0.499216 19.0153 0.995815 19.071 2.18971Z" fill="url(#paint7_linear_70_247)"/>
<path d="M14.8591 12.5852C14.8591 12.5852 14.9121 12.7466 14.9983 12.9936C15.0235 13.0696 15.054 13.1553 15.0876 13.247C15.1014 13.2787 15.1125 13.3136 15.1266 13.3484C15.1405 13.3801 15.1516 13.415 15.1655 13.4499C15.4163 14.0991 15.7756 14.9004 16.0625 15.0652C16.2241 15.1569 17.0209 15.1664 18.0153 15.1444C20.049 15.0904 22.9098 14.8752 22.9098 14.8752C22.9098 14.8752 23.049 14.9004 23.258 14.9384C23.2999 14.8655 23.3583 14.8055 23.4252 14.7612V14.7578C23.4836 14.7229 24.0771 14.3397 24.0771 14.3397V14.3429C24.1467 14.3049 24.2218 14.2828 24.3027 14.2828C24.5952 14.2828 24.8319 14.552 24.8319 14.8846C24.8319 14.9923 24.8069 15.0935 24.7623 15.1792C24.7679 15.1824 24.7734 15.1824 24.779 15.1824C25.027 15.1981 25.4811 14.6154 25.6593 14.2288C25.4616 13.9185 24.9267 13.3959 24.5561 13.133C24.5561 13.133 24.5619 12.9461 24.7038 12.8101C24.5089 12.6547 24.336 12.5469 24.2415 12.5406C23.9294 12.5155 22.5811 13.5573 22.5811 13.5573L18.1267 13.285L17.1407 13.225L17.1099 13.1141L17.0794 13.0127L17.0515 12.9113L16.851 12.2366L14.8591 12.5852Z" fill="#FA8B98"/>
<path d="M17.6449 18.5999C17.6449 18.5999 18.0432 11.752 17.4805 9.36395C16.9345 7.03595 15.146 6.10786 14.1515 7.5932C13.157 9.07879 13.5497 11.4765 13.4663 13.4339C13.3102 17.0795 12.5637 18.2102 12.533 18.8848H17.6449V18.5999Z" fill="url(#paint8_linear_70_247)"/>
<path fill-rule="evenodd" clip-rule="evenodd" d="M13.8618 9.95605L14.5889 13.6239L17.4944 13.1204L16.7061 9.48425L13.8618 9.95605Z" fill="#BC2060"/>
<path d="M14.859 13.0159C14.859 13.0159 14.8896 13.1141 14.9453 13.2693C14.9538 13.301 14.9705 13.3325 14.9816 13.3705C14.9899 13.4022 15.0065 13.4339 15.0179 13.4719C15.2546 14.1308 15.7114 15.2933 16.0651 15.4927C16.2267 15.5845 17.0012 15.5973 17.9819 15.575H17.9846C20.0181 15.5213 22.9097 15.3059 22.9097 15.3059C22.9097 15.3059 23.0128 15.325 23.1689 15.3533C23.1661 15.325 23.1631 15.2996 23.1631 15.271C23.1631 15.1475 23.1966 15.0272 23.2551 14.9321C23.297 14.8592 23.3555 14.7992 23.4223 14.7547V14.7578C23.4808 14.7232 24.0742 14.3397 24.0742 14.3397V14.3429C24.1438 14.3049 24.2189 14.2829 24.2998 14.2829C24.5923 14.2829 24.829 14.552 24.829 14.8846C24.829 14.9924 24.8041 15.0936 24.7594 15.1792C24.7204 15.2553 24.6702 15.3216 24.6034 15.3724L24.6006 15.3756C24.5756 15.3944 24.5532 15.4073 24.5283 15.423L24.3276 15.5499C24.3583 15.5562 24.3889 15.5593 24.4168 15.5624C24.5756 15.5879 24.7065 15.6067 24.7733 15.6099C25.0854 15.6353 25.7288 14.6915 25.7288 14.4063C25.7288 14.362 25.701 14.3017 25.6536 14.2226C25.4558 13.9122 24.921 13.3896 24.5505 13.1267C24.4168 13.0316 24.3054 12.9716 24.2358 12.9684C23.9237 12.943 22.5755 13.982 22.5755 13.982L18.1044 13.7128H18.1016L17.135 13.6525L16.9818 13.1267L16.951 13.0253L16.9233 12.9241L16.8451 12.6578L14.9954 12.9873L14.859 13.0159Z" fill="url(#paint9_linear_70_247)"/>
<path d="M16.706 9.3606L17.2964 12.9716L14.7114 13.4182L13.8618 9.83263L16.706 9.3606Z" fill="url(#paint10_linear_70_247)"/>
<defs>
<linearGradient id="paint0_linear_70_247" x1="31.5419" y1="17.2976" x2="3.71025" y2="33.3918" gradientUnits="userSpaceOnUse">
<stop stop-color="#FDBE42"/>
<stop offset="1" stop-color="#F7931E"/>
</linearGradient>
<linearGradient id="paint1_linear_70_247" x1="38" y1="29.2576" x2="27.0222" y2="29.2576" gradientUnits="userSpaceOnUse">
<stop stop-color="#FDBE42"/>
<stop offset="1" stop-color="#F7931E"/>
</linearGradient>
<linearGradient id="paint2_linear_70_247" x1="13.4778" y1="27.1555" x2="3.16013" y2="33.2302" gradientUnits="userSpaceOnUse">
<stop stop-color="#FDBE42"/>
<stop offset="1" stop-color="#F7931E"/>
</linearGradient>
<linearGradient id="paint3_linear_70_247" x1="8.23476" y1="20.6929" x2="1.09834" y2="20.6929" gradientUnits="userSpaceOnUse">
<stop stop-color="#E09E4F"/>
<stop offset="1" stop-color="#CD8B3A"/>
</linearGradient>
<linearGradient id="paint4_linear_70_247" x1="7.11755" y1="16.4624" x2="2.13694" y2="16.4624" gradientUnits="userSpaceOnUse">
<stop stop-color="#F4B073"/>
<stop offset="1" stop-color="#E2995C"/>
</linearGradient>
<linearGradient id="paint5_linear_70_247" x1="23.5738" y1="24.4208" x2="12.3307" y2="24.4208" gradientUnits="userSpaceOnUse">
<stop stop-color="#473071"/>
<stop offset="1" stop-color="#382A5F"/>
</linearGradient>
<linearGradient id="paint6_linear_70_247" x1="19.0706" y1="3.43977" x2="15.0161" y2="5.64634" gradientUnits="userSpaceOnUse">
<stop stop-color="#FDD7DB"/>
<stop offset="1" stop-color="#FBADAF"/>
</linearGradient>
<linearGradient id="paint7_linear_70_247" x1="18.4607" y1="0.397657" x2="14.0393" y2="2.90764" gradientUnits="userSpaceOnUse">
<stop stop-color="#FF5B96"/>
<stop offset="1" stop-color="#DA3362"/>
</linearGradient>
<linearGradient id="paint8_linear_70_247" x1="18.62" y1="10.317" x2="12.4081" y2="15.4353" gradientUnits="userSpaceOnUse">
<stop stop-color="#FF5B96"/>
<stop offset="1" stop-color="#DA3362"/>
</linearGradient>
<linearGradient id="paint9_linear_70_247" x1="25.7318" y1="14.1386" x2="14.8582" y2="14.1386" gradientUnits="userSpaceOnUse">
<stop stop-color="#FDD7DB"/>
<stop offset="1" stop-color="#FBADAF"/>
</linearGradient>
<linearGradient id="paint10_linear_70_247" x1="17.7951" y1="9.04179" x2="11.4765" y2="14.2482" gradientUnits="userSpaceOnUse">
<stop stop-color="#FF5B96"/>
<stop offset="1" stop-color="#DA3362"/>
</linearGradient>
</defs>
</svg>
