<svg width="45" height="45" viewBox="0 0 45 45" fill="none" xmlns="http://www.w3.org/2000/svg">
<g clip-path="url(#clip0_74_312)">
<g clip-path="url(#clip1_74_312)">
<rect width="45" height="45" rx="22.5" fill="#FDBF3D"/>
<g clip-path="url(#clip2_74_312)">
<path d="M19.3889 70.1346H21.9077L22.3702 41.1631H15.6952L19.3889 70.1346Z" fill="url(#paint0_linear_74_312)"/>
<path d="M22.3702 41.1631L22.8389 70.1346H25.3514L29.0452 41.1631H22.3702Z" fill="url(#paint1_linear_74_312)"/>
<path d="M27.7014 15.975C25.8327 15.4163 24.2639 14.991 24.2639 14.991H22.3452H20.3702C20.3702 14.991 18.8514 15.4163 16.9889 15.975C14.3514 16.7684 12.6889 17.8539 11.8202 22.583H22.3389H32.8577C31.9952 17.8539 30.3389 16.7684 27.7014 15.975Z" fill="url(#paint2_linear_74_312)"/>
<path d="M11.2952 24.8556L10.0827 29.8895C9.95144 30.3021 9.97644 30.7528 10.1577 31.1463L11.8452 34.8217H13.5764V26.0617L11.2952 24.8556Z" fill="url(#paint3_linear_74_312)"/>
<path d="M22.3702 35.9707L14.6327 36.3579L15.0889 42.2677H22.3702H29.5952L30.1139 36.3579L22.3702 35.9707Z" fill="url(#paint4_linear_74_312)"/>
<path d="M33.4452 24.8556L34.6577 29.8895C34.7889 30.3021 34.7639 30.7528 34.5827 31.1463L32.8952 34.8217H31.1639V26.0617L33.4452 24.8556Z" fill="url(#paint5_linear_74_312)"/>
<path d="M22.3702 23.421H11.4077C11.2327 23.421 11.089 23.567 11.089 23.7447V37.4877C11.089 37.6655 11.2327 37.8115 11.4077 37.8115H22.3702H33.3327C33.5077 37.8115 33.6515 37.6655 33.6515 37.4877V23.7447C33.6515 23.567 33.5077 23.421 33.3327 23.421H22.3702Z" fill="url(#paint6_linear_74_312)"/>
<path d="M22.3702 21.7706H10.7327C10.5577 21.7706 10.4077 21.9166 10.4077 22.1007V23.3702C10.4077 23.548 10.5514 23.7003 10.7327 23.7003H22.3702H34.0139C34.1889 23.7003 34.3389 23.5543 34.3389 23.3702V22.1007C34.3389 21.9229 34.1952 21.7706 34.0139 21.7706H22.3702Z" fill="url(#paint7_linear_74_312)"/>
<path d="M18.9452 26.779H13.3139C13.1952 26.779 13.1014 26.6838 13.1014 26.5632V25.0778C13.1014 24.9572 13.1952 24.862 13.3139 24.862H18.9452C19.0639 24.862 19.1577 24.9572 19.1577 25.0778V26.5632C19.1639 26.6775 19.0639 26.779 18.9452 26.779Z" fill="white"/>
<path d="M13.9452 25.1666H13.6327V26.4679H13.9452V25.1666Z" fill="#302720"/>
<path d="M14.614 25.1666H14.3015V26.4679H14.614V25.1666Z" fill="#302720"/>
<path d="M15.2827 25.1666H14.9702V26.4679H15.2827V25.1666Z" fill="#302720"/>
<path d="M15.9514 25.1666H15.6389V26.4679H15.9514V25.1666Z" fill="#302720"/>
<path d="M16.6202 25.1666H16.3077V26.4679H16.6202V25.1666Z" fill="#302720"/>
<path d="M17.2952 25.1666H16.9827V26.4679H17.2952V25.1666Z" fill="#302720"/>
<path d="M17.9639 25.1666H17.6514V26.4679H17.9639V25.1666Z" fill="#302720"/>
<path d="M18.6327 25.1666H18.3202V26.4679H18.6327V25.1666Z" fill="#302720"/>
<path d="M22.3139 16.5527C21.2077 16.5527 20.3077 15.6386 20.3077 14.515V12.4774H24.3202V14.515C24.3202 15.6386 23.4264 16.5527 22.3139 16.5527Z" fill="url(#paint8_linear_74_312)"/>
<path d="M18.6014 10.7507C18.6014 10.7507 18.7514 11.6965 19.5577 12.4773C20.3577 13.2581 19.5577 11.2077 19.5577 11.2077L19.2577 10.6491L18.6014 10.7507Z" fill="#46345E"/>
<path d="M19.0515 7.11338C18.164 7.11338 17.7265 8.29408 19.0515 11.1379L20.0265 11.925L21.814 7.89416L19.0515 7.11338Z" fill="#46345E"/>
<path d="M26.0265 10.8015C26.0265 10.8015 25.8765 11.7346 25.089 12.5027C24.3015 13.2708 25.089 11.2458 25.089 11.2458L25.3827 10.6936L26.0265 10.8015Z" fill="#46345E"/>
<path d="M25.6265 7.11338C26.514 7.11338 26.9515 8.29408 25.6265 11.1379L24.6515 11.925L22.864 7.89416L25.6265 7.11338Z" fill="#46345E"/>
<path d="M24.3202 13.055V14.2103C24.3202 14.4007 24.3327 14.553 24.3077 14.7435C24.3014 14.7435 24.2264 14.7689 24.2202 14.7689C21.9077 15.1434 20.9452 14.3943 20.3077 13.5374L20.9452 12.947L24.3202 13.055Z" fill="#FA7782"/>
<path d="M25.2764 5.68512H19.3514V11.3474C19.3514 12.9915 20.6639 14.3245 22.2827 14.3245H22.3514C23.9702 14.3245 25.2827 12.9915 25.2827 11.3474V5.68512H25.2764Z" fill="url(#paint9_linear_74_312)"/>
<path d="M19.3577 10.3699C19.0264 9.88111 18.8577 9.51287 18.3827 9.67156C17.8827 9.83661 17.9514 10.7761 18.2702 11.1062C18.6952 11.5506 19.3577 11.2585 19.3577 11.2585" fill="url(#paint10_linear_74_312)"/>
<path d="M25.2764 10.3699C25.6077 9.88111 25.7702 9.51287 26.2514 9.67156C26.7514 9.83661 26.6827 10.7761 26.3639 11.1062C25.9389 11.5506 25.2764 11.2585 25.2764 11.2585" fill="url(#paint11_linear_74_312)"/>
<path d="M22.3389 5.83746C19.0014 5.83746 18.3577 9.29702 18.3577 9.29702C19.5952 6.94833 22.3014 7.12607 22.3139 7.13242H22.3327C22.3452 7.13242 25.0514 6.92929 26.3077 9.29702C26.3139 9.29702 25.6764 5.83746 22.3389 5.83746Z" fill="#00081A"/>
<path d="M26.4889 6.02791C26.2952 4.59965 24.1577 3 22.3389 3C20.5202 3 18.3827 4.59965 18.1889 6.02791C17.9764 7.56409 18.3639 9.29704 18.3639 9.29704C18.3639 9.29704 19.0014 5.83748 22.3452 5.83748C25.6827 5.83748 26.3264 9.29704 26.3264 9.29704C26.3264 9.29704 26.7014 7.56409 26.4889 6.02791Z" fill="url(#paint12_linear_74_312)"/>
</g>
<line x1="-2.53789" y1="-0.364637" x2="39.4621" y2="44.6354" stroke="#CC0A31" stroke-width="4"/>
<line x1="43.7017" y1="7.50718" x2="-2.68531" y2="47.97" stroke="#CC0A31" stroke-width="4"/>
</g>
</g>
<defs>
<linearGradient id="paint0_linear_74_312" x1="15.6975" y1="55.6503" x2="22.3716" y2="55.6503" gradientUnits="userSpaceOnUse">
<stop stop-color="#473071"/>
<stop offset="1" stop-color="#382A5F"/>
</linearGradient>
<linearGradient id="paint1_linear_74_312" x1="22.3716" y1="55.6503" x2="29.0456" y2="55.6503" gradientUnits="userSpaceOnUse">
<stop stop-color="#473071"/>
<stop offset="1" stop-color="#382A5F"/>
</linearGradient>
<linearGradient id="paint2_linear_74_312" x1="11.8198" y1="18.7876" x2="32.8653" y2="18.7876" gradientUnits="userSpaceOnUse">
<stop stop-color="#606161"/>
<stop offset="1" stop-color="#302720"/>
</linearGradient>
<linearGradient id="paint3_linear_74_312" x1="11.7896" y1="22.1537" x2="11.7896" y2="35.0278" gradientUnits="userSpaceOnUse">
<stop stop-color="#FDD7DB"/>
<stop offset="1" stop-color="#FBADAF"/>
</linearGradient>
<linearGradient id="paint4_linear_74_312" x1="14.6301" y1="39.1186" x2="30.1131" y2="39.1186" gradientUnits="userSpaceOnUse">
<stop stop-color="#606161"/>
<stop offset="1" stop-color="#00081A"/>
</linearGradient>
<linearGradient id="paint5_linear_74_312" x1="32.9535" y1="22.1537" x2="32.9535" y2="35.0278" gradientUnits="userSpaceOnUse">
<stop stop-color="#FDD7DB"/>
<stop offset="1" stop-color="#FBADAF"/>
</linearGradient>
<linearGradient id="paint6_linear_74_312" x1="11.0916" y1="30.6135" x2="33.6516" y2="30.6135" gradientUnits="userSpaceOnUse">
<stop stop-color="#E09E4F"/>
<stop offset="1" stop-color="#CD8B3A"/>
</linearGradient>
<linearGradient id="paint7_linear_74_312" x1="10.4096" y1="22.7358" x2="34.3336" y2="22.7358" gradientUnits="userSpaceOnUse">
<stop stop-color="#F4B073"/>
<stop offset="1" stop-color="#E2995C"/>
</linearGradient>
<linearGradient id="paint8_linear_74_312" x1="20.3114" y1="14.5139" x2="24.3214" y2="14.5139" gradientUnits="userSpaceOnUse">
<stop stop-color="#FDD7DB"/>
<stop offset="1" stop-color="#FBADAF"/>
</linearGradient>
<linearGradient id="paint9_linear_74_312" x1="19.3555" y1="9.99969" x2="25.278" y2="9.99969" gradientUnits="userSpaceOnUse">
<stop stop-color="#FDD7DB"/>
<stop offset="1" stop-color="#FBADAF"/>
</linearGradient>
<linearGradient id="paint10_linear_74_312" x1="18.0149" y1="10.4979" x2="19.3555" y2="10.4979" gradientUnits="userSpaceOnUse">
<stop stop-color="#FDD7DB"/>
<stop offset="1" stop-color="#FBADAF"/>
</linearGradient>
<linearGradient id="paint11_linear_74_312" x1="26.7314" y1="10.4979" x2="25.3029" y2="10.4979" gradientUnits="userSpaceOnUse">
<stop stop-color="#FDD7DB"/>
<stop offset="1" stop-color="#FBADAF"/>
</linearGradient>
<linearGradient id="paint12_linear_74_312" x1="18.123" y1="6.14846" x2="26.5529" y2="6.14846" gradientUnits="userSpaceOnUse">
<stop stop-color="#606161"/>
<stop offset="1" stop-color="#00081A"/>
</linearGradient>
<clipPath id="clip0_74_312">
<rect width="45" height="45" fill="white"/>
</clipPath>
<clipPath id="clip1_74_312">
<rect width="45" height="45" rx="22.5" fill="white"/>
</clipPath>
<clipPath id="clip2_74_312">
<rect width="25" height="73" fill="white" transform="translate(10 3)"/>
</clipPath>
</defs>
</svg>
