<svg width="24" height="24" viewBox="0 0 24 24" fill="none" xmlns="http://www.w3.org/2000/svg">
<path d="M24 11.9773C24.0123 18.589 18.6204 23.9954 12.0087 24C9.15316 24.002 6.53019 23.0066 4.46894 21.343C3.93296 20.9104 3.89289 20.1072 4.37996 19.6201L4.92514 19.0749C5.3417 18.6583 6.00674 18.6128 6.46825 18.9789C7.98689 20.184 9.90878 20.9033 12 20.9033C16.9212 20.9033 20.9033 16.9205 20.9033 12C20.9033 7.0788 16.9205 3.09678 12 3.09678C9.63805 3.09678 7.4928 4.01464 5.89995 5.51285L8.35579 7.96869C8.84353 8.45644 8.4981 9.29034 7.80839 9.29034H0.774195C0.346597 9.29034 0 8.94374 0 8.51615V1.48195C0 0.792243 0.833905 0.446807 1.32165 0.934502L3.71062 3.32347C5.86496 1.26465 8.78479 0 12 0C18.6199 0 23.9878 5.36033 24 11.9773ZM15.2462 15.7895L15.7215 15.1783C16.1153 14.6721 16.0241 13.9424 15.5178 13.5487L13.5484 12.0169V6.96776C13.5484 6.32638 13.0285 5.80646 12.3871 5.80646H11.6129C10.9716 5.80646 10.4516 6.32638 10.4516 6.96776V13.5315L13.6166 15.9932C14.1229 16.3869 14.8524 16.2957 15.2462 15.7895Z" fill="#3C3A36" fill-opacity="0.7"/>
</svg>
